<?xml version="1.0" encoding="iso-8859-1"?>
<!-- Generator: Adobe Illustrator 19.0.0, SVG Export Plug-In . SVG Version: 6.00 Build 0)  -->
<svg version="1.1" id="Capa_1" xmlns="http://www.w3.org/2000/svg" xmlns:xlink="http://www.w3.org/1999/xlink" x="0px" y="0px"
	 viewBox="0 0 480 480" style="enable-background:new 0 0 480 480;" xml:space="preserve">
<g>
	<g>
		<path d="M480,128v-16h-40V80c0-2.122-0.844-4.156-2.344-5.656l-32-32c-1.5-1.5-3.534-2.344-5.656-2.344h-32V0h-16v40h-24V0h-16v40
			h-24V0h-16v40h-24V0h-16v40h-24V0h-16v40h-24V0h-16v40h-24V0h-16v40H80c-2.122,0-4.156,0.844-5.656,2.344l-32,32
			C40.844,75.844,40,77.878,40,80v32H0v16h40v24H0v16h40v24H0v16h40v24H0v16h40v24H0v16h40v24H0v16h40v24H0v16h40v32
			c0,2.122,0.844,4.156,2.344,5.656l32,32c1.5,1.5,3.534,2.344,5.656,2.344h32v40h16v-40h24v40h16v-40h24v40h16v-40h24v40h16v-40h24
			v40h16v-40h24v40h16v-40h24v40h16v-40h32c2.122,0,4.156-0.844,5.656-2.344l32-32c1.5-1.5,2.344-3.534,2.344-5.656v-32h40v-16h-40
			v-24h40v-16h-40v-24h40v-16h-40v-24h40v-16h-40v-24h40v-16h-40v-24h40v-16h-40v-24H480z M424,396.688L396.688,424H83.312
			L56,396.688V83.312L83.312,56h313.376L424,83.312V396.688z"/>
	</g>
</g>
<g>
	<g>
		<path d="M384,88H96c-4.418,0-8,3.582-8,8v288c0,4.418,3.582,8,8,8h288c4.418,0,8-3.582,8-8V96C392,91.582,388.418,88,384,88z
			 M376,128h-88c-4.418,0-8,3.582-8,8v32h-8c-4.418,0-8,3.582-8,8v32c0,4.418,3.582,8,8,8h32c4.418,0,8-3.582,8-8v-32
			c0-4.418-3.582-8-8-8h-8v-24h80v220.688l-40-40V296h8c4.418,0,8-3.582,8-8v-32c0-4.418-3.582-8-8-8h-32c-4.418,0-8,3.582-8,8v32
			c0,4.418,3.582,8,8,8h8v32c0,2.122,0.844,4.156,2.344,5.656L364.688,376H280v-48c0-4.418-3.582-8-8-8h-56v-8c0-4.418-3.582-8-8-8
			h-32c-4.418,0-8,3.582-8,8v32c0,4.418,3.582,8,8,8h32c4.418,0,8-3.582,8-8v-8h48v40H104V216h40v40c0,4.418,3.582,8,8,8h40v8
			c0,4.418,3.582,8,8,8h32c4.418,0,8-3.582,8-8v-32c0-4.418-3.582-8-8-8h-32c-4.418,0-8,3.582-8,8v8h-32v-40c0-4.418-3.582-8-8-8
			h-48v-96h140.688l-40,40H176v-8c0-4.418-3.582-8-8-8h-32c-4.418,0-8,3.582-8,8v32c0,4.418,3.582,8,8,8h32c4.418,0,8-3.582,8-8v-8
			h32c2.122,0,4.156-0.844,5.656-2.344L267.312,104H376V128z M296,184v16h-16v-16H296z M320,280v-16h16v16H320z M200,320v16h-16v-16
			H200z M208,264v-16h16v16H208z M160,144v16h-16v-16H160z"/>
	</g>
</g>
<g>
	<g>
		<rect x="208" y="184" width="16" height="16"/>
	</g>
</g>
<g>
	<g>
		<rect x="264" y="262.92" width="16" height="16"/>
	</g>
</g>
<g>
	<g>
		<rect x="128" y="320" width="16" height="16"/>
	</g>
</g>
<g>
	<g>
		<rect x="336" y="184" width="16" height="16"/>
	</g>
</g>
<g>
</g>
<g>
</g>
<g>
</g>
<g>
</g>
<g>
</g>
<g>
</g>
<g>
</g>
<g>
</g>
<g>
</g>
<g>
</g>
<g>
</g>
<g>
</g>
<g>
</g>
<g>
</g>
<g>
</g>
</svg>
