<?xml version="1.0" encoding="iso-8859-1"?>
<!-- Generator: Adobe Illustrator 19.0.0, SVG Export Plug-In . SVG Version: 6.00 Build 0)  -->
<svg version="1.1" id="Capa_1" xmlns="http://www.w3.org/2000/svg" xmlns:xlink="http://www.w3.org/1999/xlink" x="0px" y="0px"
	 viewBox="0 0 480 480" style="enable-background:new 0 0 480 480;" xml:space="preserve">
<g>
	<g>
		<path d="M240,336c-22.056,0-40,17.944-40,40c0,22.056,17.944,40,40,40c22.056,0,40-17.944,40-40C280,353.944,262.056,336,240,336z
			 M240,400c-13.232,0-24-10.768-24-24s10.768-24,24-24s24,10.768,24,24S253.232,400,240,400z"/>
	</g>
</g>
<g>
	<g>
		<path d="M323.888,244.192C341.656,227.976,352,206.496,352,184V88c0-48.52-46-88-102.544-88h-18.904C174,0,128,39.48,128,88v96
			c0,22.448,10.288,43.888,27.936,60.048C102.664,252.784,0,280.952,0,368v104c0,4.416,3.584,8,8,8h456.64
			c8.472,0,15.36-6.888,15.36-15.36V368C480,281.456,377.176,253.072,323.888,244.192z M144,184V88c0-39.696,38.824-72,86.544-72
			h18.904C297.176,16,336,48.304,336,88v96c0,22.528-13.112,44.128-35.056,57.752c-0.464,0.288-0.936,0.512-1.408,0.792
			c-0.008,0-0.008,0-0.016,0.008c-2.056,1.224-4.032,2.312-5.976,3.296c-2,1-4,1.944-6,2.752c-11.8,4.84-24.968,7.4-38.088,7.4
			h-18.904c-3.28,0-6.56-0.16-9.824-0.472c-9.792-0.944-19.408-3.288-28.232-6.912c-2.184-0.904-4.24-1.88-6.248-2.888
			c-1.992-1.016-3.952-2.096-5.848-3.248c-0.016-0.008-0.024-0.008-0.04-0.016c-0.44-0.264-0.936-0.512-1.368-0.784
			C157.08,228.08,144,206.52,144,184z M360,464H120V304h240V464z M464,464h-88v-56h24c4.416,0,8-3.584,8-8v-48h-16v40h-16v-96
			c0-4.416-3.584-8-8-8H112c-4.416,0-8,3.584-8,8v96H88v-40H72v48c0,4.416,3.584,8,8,8h24v56H16v-96
			c0-84.336,117.944-105.624,158.496-110.424c0.2,0.112,0.416,0.192,0.608,0.296c3.528,1.96,7.224,3.84,11.272,5.528
			c13.912,5.704,28.768,8.6,44.168,8.6h18.904c3.848,0,7.664-0.184,11.44-0.544c11.328-1.08,22.288-3.776,32.704-8.048
			c2.208-0.904,4.432-1.944,6.68-3.064c1.224-0.608,2.432-1.264,3.648-1.928c0.472-0.256,0.928-0.472,1.4-0.744
			C345.912,262.608,464,284.216,464,368V464z"/>
	</g>
</g>
<g>
	<g>
		<path d="M205.656,101.656l-11.312-11.312l-32,32c-3.128,3.128-3.128,8.184,0,11.312l32,32l11.312-11.312L179.312,128
			L205.656,101.656z"/>
	</g>
</g>
<g>
	<g>
		<path d="M317.656,122.344l-32-32l-11.312,11.312L300.688,128l-26.344,26.344l11.312,11.312l32-32
			C320.784,130.528,320.784,125.472,317.656,122.344z"/>
	</g>
</g>
<g>
	<g>
		<rect x="191.992" y="111.993" transform="matrix(0.3848 -0.923 0.923 0.3848 39.3505 299.0241)" width="104" height="16"/>
	</g>
</g>
<g>
	<g>
		<rect x="336" width="24" height="16"/>
	</g>
</g>
<g>
	<g>
		<rect x="400" width="80" height="16"/>
	</g>
</g>
<g>
	<g>
		<rect x="392" y="144" width="80" height="16"/>
	</g>
</g>
<g>
	<g>
		<rect x="368" y="192" width="64" height="16"/>
	</g>
</g>
<g>
	<g>
		<rect x="360" y="48" width="72" height="16"/>
	</g>
</g>
<g>
	<g>
		<rect x="432" y="96" width="48" height="16"/>
	</g>
</g>
<g>
	<g>
		<rect x="464" y="48" width="16" height="16"/>
	</g>
</g>
<g>
	<g>
		<rect x="464" y="192" width="16" height="16"/>
	</g>
</g>
<g>
	<g>
		<rect x="368" y="96" width="24" height="16"/>
	</g>
</g>
<g>
</g>
<g>
</g>
<g>
</g>
<g>
</g>
<g>
</g>
<g>
</g>
<g>
</g>
<g>
</g>
<g>
</g>
<g>
</g>
<g>
</g>
<g>
</g>
<g>
</g>
<g>
</g>
<g>
</g>
</svg>
