<?xml version="1.0" encoding="iso-8859-1"?>
<!-- Generator: Adobe Illustrator 19.0.0, SVG Export Plug-In . SVG Version: 6.00 Build 0)  -->
<svg version="1.1" id="Capa_1" xmlns="http://www.w3.org/2000/svg" xmlns:xlink="http://www.w3.org/1999/xlink" x="0px" y="0px"
	 viewBox="0 0 512 512" style="enable-background:new 0 0 512 512;" xml:space="preserve">
<g>
	<g>
		<path d="M480,32H32C14.327,32,0,46.327,0,64v320c0.017,13.557,8.558,25.639,21.333,30.176v55.157
			C21.333,475.224,26.109,480,32,480h448c5.891,0,10.667-4.776,10.667-10.667v-55.157C503.442,409.639,511.983,397.557,512,384V64
			C512,46.327,497.673,32,480,32z M490.667,384c0,5.891-4.776,10.667-10.667,10.667c-5.891,0-10.667,4.776-10.667,10.667v53.333
			H42.667v-53.333c0-5.891-4.776-10.667-10.667-10.667S21.333,389.891,21.333,384V64c0-5.891,4.776-10.667,10.667-10.667h448
			c5.891,0,10.667,4.776,10.667,10.667V384z"/>
	</g>
</g>
<g>
	<g>
		<rect x="64" y="394.667" width="298.667" height="21.333"/>
	</g>
</g>
<g>
	<g>
		<rect x="192" y="373.333" width="21.333" height="64"/>
	</g>
</g>
<g>
	<g>
		<rect x="426.667" y="394.667" width="21.333" height="21.333"/>
	</g>
</g>
<g>
	<g>
		<rect x="384" y="394.667" width="21.333" height="21.333"/>
	</g>
</g>
<g>
	<g>
		<path d="M303.435,203.787l-85.333-42.667c-1.482-0.741-3.116-1.126-4.773-1.125c-5.891,0.003-10.664,4.781-10.662,10.672V256
			c0,5.891,4.776,10.667,10.667,10.667c1.655,0.002,3.287-0.382,4.768-1.12l85.333-42.667c2.074-1.034,3.755-2.715,4.789-4.789
			C310.851,212.819,308.707,206.414,303.435,203.787z M224,238.741v-50.816l50.816,25.408L224,238.741z"/>
	</g>
</g>
<g>
</g>
<g>
</g>
<g>
</g>
<g>
</g>
<g>
</g>
<g>
</g>
<g>
</g>
<g>
</g>
<g>
</g>
<g>
</g>
<g>
</g>
<g>
</g>
<g>
</g>
<g>
</g>
<g>
</g>
</svg>
